ffmpeg started on 2016-12-03 at 08:29:11
Report written to "Output/x264/results/ffmpeg/old_town_cross_2160p50placebo6000k.log"
Command line:
Tools/ffmpeg/ffmpeg -benchmark -y -i Input/y4m/old_town_cross_2160p50.y4m -c:v libx264 -preset placebo -b:v 6000k -an Output/x264/encoded/old_town_cross_2160p50placebo6000k.mkv
ffmpeg version N-82227-gdb23fde Copyright (c) 2000-2016 the FFmpeg developers
  built with gcc 5.4.0 (Ubuntu 5.4.0-6ubuntu1~16.04.2) 20160609
  configuration: --prefix=/home/jaroslav/ffmpeg_build --pkg-config-flags=--static --extra-cflags=-I/home/jaroslav/ffmpeg_build/include --extra-ldflags=-L/home/jaroslav/ffmpeg_build/lib --bindir=/home/jaroslav/bin --enable-gpl --enable-libass --enable-libfdk-aac --enable-libfreetype --enable-libmp3lame --enable-libopus --enable-libtheora --enable-libvorbis --enable-libvpx --enable-libx264 --enable-libx265 --enable-nvenc --enable-libmfx --enable-libxvid --enable-libgsm --enable-libopencore-amrnb --enable-version3 --enable-nonfree
  libavutil      55. 35.100 / 55. 35.100
  libavcodec     57. 66.101 / 57. 66.101
  libavformat    57. 57.100 / 57. 57.100
  libavdevice    57.  2.100 / 57.  2.100
  libavfilter     6. 66.100 /  6. 66.100
  libswscale      4.  3.100 /  4.  3.100
  libswresample   2.  4.100 /  2.  4.100
  libpostproc    54.  2.100 / 54.  2.100
Input #0, yuv4mpegpipe, from 'Input/y4m/old_town_cross_2160p50.y4m':
  Duration: 00:00:10.00, start: 0.000000, bitrate: 4976642 kb/s
    Stream #0:0: Video: rawvideo (I420 / 0x30323449), yuv420p(progressive), 3840x2160, SAR 1:1 DAR 16:9, 50 fps, 50 tbr, 50 tbn, 50 tbc
[libx264 @ 0x42d8120] using SAR=1/1
[libx264 @ 0x42d8120] DPB size (16 frames, 518400 mbs) > level limit (5 frames, 184320 mbs)
[libx264 @ 0x42d8120] using cpu capabilities: MMX2 SSE2Fast SSSE3 SSE4.2 AVX FMA3 AVX2 LZCNT BMI2
[libx264 @ 0x42d8120] profile High, level 5.2
[libx264 @ 0x42d8120] 264 - core 148 - H.264/MPEG-4 AVC codec - Copyleft 2003-2016 - http://www.videolan.org/x264.html - options: cabac=1 ref=16 deblock=1:0:0 analyse=0x3:0x133 me=tesa subme=11 psy=1 psy_rd=1.00:0.00 mixed_ref=1 me_range=24 chroma_me=1 trellis=2 8x8dct=1 cqm=0 deadzone=21,11 fast_pskip=0 chroma_qp_offset=-2 threads=6 lookahead_threads=1 sliced_threads=0 nr=0 decimate=1 interlaced=0 bluray_compat=0 constrained_intra=0 bframes=16 b_pyramid=2 b_adapt=2 b_bias=0 direct=3 weightb=1 open_gop=0 weightp=2 keyint=250 keyint_min=25 scenecut=40 intra_refresh=0 rc_lookahead=60 rc=abr mbtree=1 bitrate=6000 ratetol=1.0 qcomp=0.60 qpmin=0 qpmax=69 qpstep=4 ip_ratio=1.40 aq=1:1.00
Output #0, matroska, to 'Output/x264/encoded/old_town_cross_2160p50placebo6000k.mkv':
  Metadata:
    encoder         : Lavf57.57.100
    Stream #0:0: Video: h264 (libx264) (H264 / 0x34363248), yuv420p, 3840x2160 [SAR 1:1 DAR 16:9], q=-1--1, 6000 kb/s, 50 fps, 1k tbn, 50 tbc
    Metadata:
      encoder         : Lavc57.66.101 libx264
    Side data:
      cpb: bitrate max/min/avg: 0/0/6000000 buffer size: 0 vbv_delay: -1
Stream mapping:
  Stream #0:0 -> #0:0 (rawvideo (native) -> h264 (libx264))
Press [q] to stop, [?] for help
frame=   58 fps=0.0 q=0.0 size=       0kB time=00:00:00.00 bitrate=N/A speed=   0x    frame=   84 fps=3.3 q=0.0 size=       0kB time=00:00:00.00 bitrate=N/A speed=   0x    frame=   89 fps=3.3 q=38.0 size=       1kB time=-00:00:00.01 bitrate=N/A speed=N/A    frame=   90 fps=3.1 q=38.0 size=       1kB time=00:00:00.00 bitrate=5888.0kbits/s speed=3.4e-05x    frame=   91 fps=2.7 q=38.0 size=       1kB time=00:00:00.02 bitrate= 280.4kbits/s speed=0.000625x    frame=   92 fps=2.7 q=38.0 size=       1kB time=00:00:00.04 bitrate= 143.6kbits/s speed=0.00119x    frame=   95 fps=2.7 q=38.0 size=       1kB time=00:00:00.10 bitrate=  58.3kbits/s speed=0.00286x    frame=   96 fps=2.6 q=38.0 size=       1kB time=00:00:00.12 bitrate=  48.7kbits/s speed=0.00328x    frame=   97 fps=2.3 q=38.0 size=       1kB time=00:00:00.14 bitrate=  41.8kbits/s speed=0.00341x    frame=   98 fps=2.3 q=46.0 size=       1kB time=00:00:00.16 bitrate=  36.6kbits/s speed=0.00381x    frame=  101 fps=2.4 q=40.0 size=       1kB time=00:00:00.22 bitrate=  26.6kbits/s speed=0.00516x    frame=  102 fps=2.3 q=40.0 size=       1kB time=00:00:00.24 bitrate=  24.4kbits/s speed=0.00541x    frame=  103 fps=2.1 q=41.0 size=       1kB time=00:00:00.26 bitrate=  22.6kbits/s speed=0.00534x    frame=  106 fps=2.1 q=44.0 size=       1kB time=00:00:00.32 bitrate=  18.3kbits/s speed=0.00628x    frame=  109 fps=2.0 q=44.0 size=       1kB time=00:00:00.38 bitrate=  15.5kbits/s speed=0.00682x    frame=  112 fps=2.0 q=45.0 size=       1kB time=00:00:00.44 bitrate=  13.4kbits/s speed=0.00782x    frame=  114 fps=1.9 q=44.0 size=       1kB time=00:00:00.48 bitrate=  12.2kbits/s speed=0.008x    frame=  115 fps=1.8 q=44.0 size=       1kB time=00:00:00.50 bitrate=  11.8kbits/s speed=0.00801x    frame=  117 fps=1.8 q=43.0 size=       1kB time=00:00:00.54 bitrate=  10.9kbits/s speed=0.00855x    frame=  120 fps=1.8 q=42.0 size=       1kB time=00:00:00.60 bitrate=   9.8kbits/s speed=0.00892x    frame=  121 fps=1.7 q=42.0 size=       1kB time=00:00:00.62 bitrate=   9.5kbits/s speed=0.00885x    frame=  123 fps=1.7 q=40.0 size=       1kB time=00:00:00.66 bitrate=   8.9kbits/s speed=0.00932x    frame=  124 fps=1.7 q=41.0 size=       1kB time=00:00:00.68 bitrate=   8.6kbits/s speed=0.00952x    frame=  126 fps=1.7 q=41.0 size=       1kB time=00:00:00.72 bitrate=   8.2kbits/s speed=0.00963x    frame=  127 fps=1.7 q=41.0 size=       1kB time=00:00:00.74 bitrate=   7.9kbits/s speed=0.00972x    frame=  128 fps=1.5 q=40.0 size=       1kB time=00:00:00.76 bitrate=   7.7kbits/s speed=0.00914x    frame=  129 fps=1.5 q=40.0 size=       1kB time=00:00:00.78 bitrate=   7.5kbits/s speed=0.00926x    frame=  130 fps=1.5 q=40.0 size=       1kB time=00:00:00.80 bitrate=   7.4kbits/s speed=0.00937x    frame=  134 fps=1.5 q=38.0 size=       1kB time=00:00:00.88 bitrate=   6.7kbits/s speed=0.00961x    frame=  135 fps=1.4 q=38.0 size=       1kB time=00:00:00.90 bitrate=   6.5kbits/s speed=0.00963x    frame=  136 fps=1.4 q=39.0 size=       1kB time=00:00:00.92 bitrate=   6.4kbits/s speed=0.0097x    frame=  140 fps=1.3 q=38.0 size=       1kB time=00:00:01.00 bitrate=   5.9kbits/s speed=0.00928x    frame=  141 fps=1.3 q=38.0 size=       1kB time=00:00:01.02 bitrate=   5.8kbits/s speed=0.00939x    frame=  142 fps=1.3 q=38.0 size=       1kB time=00:00:01.04 bitrate=   5.7kbits/s speed=0.00947x    frame=  146 fps=1.2 q=38.0 size=       1kB time=00:00:01.12 bitrate=   5.3kbits/s speed=0.00955x    frame=  147 fps=1.2 q=38.0 size=       1kB time=00:00:01.14 bitrate=   5.2kbits/s speed=0.00952x    frame=  148 fps=1.2 q=38.0 size=       1kB time=00:00:01.16 bitrate=   5.1kbits/s speed=0.00958x    frame=  149 fps=1.2 q=38.0 size=       1kB time=00:00:01.18 bitrate=   5.0kbits/s speed=0.00969x    frame=  150 fps=1.1 q=38.0 size=       1kB time=00:00:01.20 bitrate=   4.9kbits/s speed=0.00909x    frame=  151 fps=1.1 q=38.0 size=       1kB time=00:00:01.22 bitrate=   4.8kbits/s speed=0.00916x    frame=  152 fps=1.1 q=37.0 size=       1kB time=00:00:01.24 bitrate=   4.7kbits/s speed=0.00923x    frame=  155 fps=1.1 q=37.0 size=       1kB time=00:00:01.30 bitrate=   4.5kbits/s speed=0.00959x    frame=  156 fps=1.1 q=37.0 size=       1kB time=00:00:01.32 bitrate=   4.5kbits/s speed=0.00909x    frame=  158 fps=1.1 q=37.0 size=       1kB time=00:00:01.36 bitrate=   4.3kbits/s speed=0.00923x    frame=  159 fps=1.1 q=37.0 size=       1kB time=00:00:01.38 bitrate=   4.3kbits/s speed=0.00929x    frame=  160 fps=1.0 q=37.0 size=       1kB time=00:00:01.40 bitrate=   4.2kbits/s speed=0.00885x    frame=  161 fps=1.0 q=37.0 size=       1kB time=00:00:01.42 bitrate=   4.1kbits/s speed=0.00887x    frame=  162 fps=1.0 q=37.0 size=       1kB time=00:00:01.44 bitrate=   4.1kbits/s speed=0.00888x    frame=  164 fps=1.0 q=37.0 size=       1kB time=00:00:01.48 bitrate=   4.0kbits/s speed=0.00907x    frame=  165 fps=1.0 q=37.0 size=       1kB time=00:00:01.50 bitrate=   3.9kbits/s speed=0.00904x    frame=  166 fps=1.0 q=37.0 size=       1kB time=00:00:01.52 bitrate=   3.9kbits/s speed=0.00878x    frame=  167 fps=0.9 q=37.0 size=       1kB time=00:00:01.54 bitrate=   3.8kbits/s speed=0.00876x    frame=  168 fps=0.9 q=37.0 size=       1kB time=00:00:01.56 bitrate=   3.8kbits/s speed=0.00875x    frame=  170 fps=0.9 q=37.0 size=       1kB time=00:00:01.60 bitrate=   3.7kbits/s speed=0.00845x    frame=  171 fps=0.9 q=37.0 size=       1kB time=00:00:01.62 bitrate=   3.6kbits/s speed=0.00849x    frame=  172 fps=0.9 q=37.0 size=       1kB time=00:00:01.64 bitrate=   3.6kbits/s speed=0.00853x    frame=  173 fps=0.9 q=37.0 size=       1kB time=00:00:01.66 bitrate=   3.5kbits/s speed=0.0086x    frame=  174 fps=0.9 q=37.0 size=       1kB time=00:00:01.68 bitrate=   3.5kbits/s speed=0.00857x    frame=  176 fps=0.9 q=36.0 size=       1kB time=00:00:01.72 bitrate=   3.4kbits/s speed=0.00843x    frame=  177 fps=0.9 q=37.0 size=       1kB time=00:00:01.74 bitrate=   3.4kbits/s speed=0.00837x    frame=  179 fps=0.9 q=37.0 size=       1kB time=00:00:01.78 bitrate=   3.3kbits/s speed=0.00848x    frame=  180 fps=0.8 q=37.0 size=       1kB time=00:00:01.80 bitrate=   3.3kbits/s speed=0.00845x    frame=  181 fps=0.8 q=36.0 size=       1kB time=00:00:01.82 bitrate=   3.2kbits/s speed=0.00807x    frame=  182 fps=0.8 q=36.0 size=       1kB time=00:00:01.84 bitrate=   3.2kbits/s speed=0.0081x    frame=  183 fps=0.8 q=36.0 size=       1kB time=00:00:01.86 bitrate=   3.2kbits/s speed=0.00813x    frame=  187 fps=0.8 q=36.0 size=       1kB time=00:00:01.94 bitrate=   3.0kbits/s speed=0.00805x    frame=  188 fps=0.8 q=36.0 size=       1kB time=00:00:01.96 bitrate=   3.0kbits/s speed=0.00805x    frame=  189 fps=0.8 q=36.0 size=       1kB time=00:00:01.98 bitrate=   3.0kbits/s speed=0.00807x    frame=  190 fps=0.8 q=36.0 size=       1kB time=00:00:02.00 bitrate=   2.9kbits/s speed=0.00812x    frame=  192 fps=0.7 q=36.0 size=       1kB time=00:00:02.04 bitrate=   2.9kbits/s speed=0.00787x    frame=  193 fps=0.7 q=36.0 size=       1kB time=00:00:02.06 bitrate=   2.9kbits/s speed=0.0079x    frame=  194 fps=0.7 q=36.0 size=       1kB time=00:00:02.08 bitrate=   2.8kbits/s speed=0.00794x    frame=  195 fps=0.7 q=36.0 size=       1kB time=00:00:02.10 bitrate=   2.8kbits/s speed=0.008x    frame=  198 fps=0.7 q=36.0 size=       1kB time=00:00:02.16 bitrate=   2.7kbits/s speed=0.00785x    frame=  199 fps=0.7 q=36.0 size=       1kB time=00:00:02.18 bitrate=   2.7kbits/s speed=0.00782x    frame=  201 fps=0.7 q=36.0 size=       1kB time=00:00:02.22 bitrate=   2.7kbits/s speed=0.00794x    frame=  202 fps=0.7 q=36.0 size=       1kB time=00:00:02.24 bitrate=   2.6kbits/s speed=0.00795x    frame=  203 fps=0.7 q=36.0 size=       1kB time=00:00:02.26 bitrate=   2.6kbits/s speed=0.00777x    frame=  204 fps=0.7 q=36.0 size=       1kB time=00:00:02.28 bitrate=   2.6kbits/s speed=0.00774x    frame=  205 fps=0.7 q=36.0 size=       1kB time=00:00:02.30 bitrate=   2.6kbits/s speed=0.00775x    frame=  208 fps=0.7 q=36.0 size=       1kB time=00:00:02.36 bitrate=   2.5kbits/s speed=0.00792x    frame=  209 fps=0.7 q=36.0 size=       1kB time=00:00:02.38 bitrate=   2.5kbits/s speed=0.00777x    frame=  210 fps=0.7 q=36.0 size=       1kB time=00:00:02.40 bitrate=   2.5kbits/s speed=0.00752x    frame=  211 fps=0.7 q=36.0 size=       1kB time=00:00:02.42 bitrate=   2.4kbits/s speed=0.00755x    frame=  212 fps=0.7 q=36.0 size=       1kB time=00:00:02.44 bitrate=   2.4kbits/s speed=0.00758x    frame=  216 fps=0.6 q=36.0 size=       1kB time=00:00:02.52 bitrate=   2.3kbits/s speed=0.00752x    frame=  217 fps=0.6 q=36.0 size=       1kB time=00:00:02.54 bitrate=   2.3kbits/s speed=0.00753x    frame=  218 fps=0.6 q=36.0 size=       1kB time=00:00:02.56 bitrate=   2.3kbits/s speed=0.00757x    frame=  220 fps=0.6 q=36.0 size=       1kB time=00:00:02.60 bitrate=   2.3kbits/s speed=0.00765x    frame=  221 fps=0.6 q=36.0 size=       1kB time=00:00:02.62 bitrate=   2.2kbits/s speed=0.00747x    frame=  222 fps=0.6 q=36.0 size=       1kB time=00:00:02.64 bitrate=   2.2kbits/s speed=0.00743x    frame=  223 fps=0.6 q=36.0 size=       1kB time=00:00:02.66 bitrate=   2.2kbits/s speed=0.00745x    frame=  224 fps=0.6 q=36.0 size=       1kB time=00:00:02.68 bitrate=   2.2kbits/s speed=0.0075x    frame=  227 fps=0.6 q=36.0 size=       1kB time=00:00:02.74 bitrate=   2.1kbits/s speed=0.00748x    frame=  228 fps=0.6 q=36.0 size=       1kB time=00:00:02.76 bitrate=   2.1kbits/s speed=0.00742x    frame=  229 fps=0.6 q=36.0 size=       1kB time=00:00:02.78 bitrate=   2.1kbits/s speed=0.00744x    frame=  230 fps=0.6 q=36.0 size=       1kB time=00:00:02.80 bitrate=   2.1kbits/s speed=0.00744x    frame=  232 fps=0.6 q=36.0 size=       1kB time=00:00:02.84 bitrate=   2.1kbits/s speed=0.00738x    frame=  233 fps=0.6 q=36.0 size=       1kB time=00:00:02.86 bitrate=   2.1kbits/s speed=0.0074x    frame=  234 fps=0.6 q=36.0 size=       1kB time=00:00:02.88 bitrate=   2.0kbits/s speed=0.00736x    frame=  236 fps=0.6 q=36.0 size=       1kB time=00:00:02.92 bitrate=   2.0kbits/s speed=0.0074x    frame=  238 fps=0.6 q=36.0 size=       1kB time=00:00:02.96 bitrate=   2.0kbits/s speed=0.00734x    frame=  239 fps=0.6 q=36.0 size=       1kB time=00:00:02.98 bitrate=   2.0kbits/s speed=0.00738x    frame=  240 fps=0.6 q=36.0 size=       1kB time=00:00:03.00 bitrate=   2.0kbits/s speed=0.00722x    frame=  241 fps=0.6 q=36.0 size=       1kB time=00:00:03.02 bitrate=   1.9kbits/s speed=0.00724x    frame=  242 fps=0.6 q=36.0 size=       1kB time=00:00:03.04 bitrate=   1.9kbits/s speed=0.00727x    frame=  243 fps=0.6 q=36.0 size=       1kB time=00:00:03.06 bitrate=   1.9kbits/s speed=0.00731x    frame=  246 fps=0.6 q=36.0 size=       1kB time=00:00:03.12 bitrate=   1.9kbits/s speed=0.00726x    frame=  247 fps=0.6 q=36.0 size=       1kB time=00:00:03.14 bitrate=   1.9kbits/s speed=0.00723x    frame=  249 fps=0.6 q=36.0 size=       1kB time=00:00:03.18 bitrate=   1.9kbits/s speed=0.0073x    frame=  250 fps=0.6 q=36.0 size=       1kB time=00:00:03.20 bitrate=   1.8kbits/s speed=0.00732x    frame=  251 fps=0.6 q=36.0 size=       1kB time=00:00:03.22 bitrate=   1.8kbits/s speed=0.00722x    frame=  252 fps=0.6 q=36.0 size=       1kB time=00:00:03.24 bitrate=   1.8kbits/s speed=0.00722x    frame=  253 fps=0.6 q=36.0 size=       1kB time=00:00:03.26 bitrate=   1.8kbits/s speed=0.00719x    frame=  256 fps=0.6 q=36.0 size=       1kB time=00:00:03.32 bitrate=   1.8kbits/s speed=0.0073x    frame=  257 fps=0.6 q=36.0 size=       1kB time=00:00:03.34 bitrate=   1.8kbits/s speed=0.00725x    frame=  258 fps=0.6 q=36.0 size=       1kB time=00:00:03.36 bitrate=   1.8kbits/s speed=0.00725x    frame=  259 fps=0.5 q=36.0 size=       1kB time=00:00:03.38 bitrate=   1.7kbits/s speed=0.00713x    frame=  260 fps=0.5 q=36.0 size=       1kB time=00:00:03.40 bitrate=   1.7kbits/s speed=0.00715x    frame=  261 fps=0.5 q=36.0 size=       1kB time=00:00:03.42 bitrate=   1.7kbits/s speed=0.00717x    frame=  265 fps=0.5 q=35.0 size=       1kB time=00:00:03.50 bitrate=   1.7kbits/s speed=0.00711x    frame=  266 fps=0.5 q=36.0 size=       1kB time=00:00:03.52 bitrate=   1.7kbits/s speed=0.00712x    frame=  267 fps=0.5 q=36.0 size=       1kB time=00:00:03.54 bitrate=   1.7kbits/s speed=0.00713x    frame=  268 fps=0.5 q=36.0 size=       1kB time=00:00:03.56 bitrate=   1.7kbits/s speed=0.00716x    frame=  270 fps=0.5 q=36.0 size=       1kB time=00:00:03.60 bitrate=   1.6kbits/s speed=0.0071x    frame=  271 fps=0.5 q=35.0 size=       1kB time=00:00:03.62 bitrate=   1.6kbits/s speed=0.00709x    frame=  272 fps=0.5 q=35.0 size=       1kB time=00:00:03.64 bitrate=   1.6kbits/s speed=0.00711x    frame=  274 fps=0.5 q=35.0 size=       1kB time=00:00:03.68 bitrate=   1.6kbits/s speed=0.00716x    frame=  276 fps=0.5 q=35.0 size=       1kB time=00:00:03.72 bitrate=   1.6kbits/s speed=0.00705x    frame=  277 fps=0.5 q=35.0 size=       1kB time=00:00:03.74 bitrate=   1.6kbits/s speed=0.00708x    frame=  278 fps=0.5 q=35.0 size=       1kB time=00:00:03.76 bitrate=   1.6kbits/s speed=0.00709x    frame=  279 fps=0.5 q=35.0 size=       1kB time=00:00:03.78 bitrate=   1.6kbits/s speed=0.0071x    frame=  280 fps=0.5 q=35.0 size=       1kB time=00:00:03.80 bitrate=   1.5kbits/s speed=0.00713x    frame=  281 fps=0.5 q=35.0 size=       1kB time=00:00:03.82 bitrate=   1.5kbits/s speed=0.00715x    frame=  282 fps=0.5 q=35.0 size=       1kB time=00:00:03.84 bitrate=   1.5kbits/s speed=0.00705x    frame=  283 fps=0.5 q=35.0 size=       1kB time=00:00:03.86 bitrate=   1.5kbits/s speed=0.00706x    frame=  284 fps=0.5 q=35.0 size=       1kB time=00:00:03.88 bitrate=   1.5kbits/s speed=0.00701x    frame=  285 fps=0.5 q=35.0 size=       1kB time=00:00:03.90 bitrate=   1.5kbits/s speed=0.00702x    frame=  286 fps=0.5 q=35.0 size=       1kB time=00:00:03.92 bitrate=   1.5kbits/s speed=0.00704x    frame=  288 fps=0.5 q=35.0 size=       1kB time=00:00:03.96 bitrate=   1.5kbits/s speed=0.0071x    frame=  289 fps=0.5 q=35.0 size=       1kB time=00:00:03.98 bitrate=   1.5kbits/s speed=0.0071x    frame=  290 fps=0.5 q=35.0 size=       1kB time=00:00:04.00 bitrate=   1.5kbits/s speed=0.00697x    frame=  292 fps=0.5 q=35.0 size=       1kB time=00:00:04.04 bitrate=   1.5kbits/s speed=0.00704x    frame=  293 fps=0.5 q=35.0 size=       1kB time=00:00:04.06 bitrate=   1.4kbits/s speed=0.00706x    frame=  295 fps=0.5 q=35.0 size=       1kB time=00:00:04.10 bitrate=   1.4kbits/s speed=0.00711x    frame=  296 fps=0.5 q=35.0 size=       1kB time=00:00:04.12 bitrate=   1.4kbits/s speed=0.00701x    frame=  297 fps=0.5 q=35.0 size=       1kB time=00:00:04.14 bitrate=   1.4kbits/s speed=0.00693x    frame=  298 fps=0.5 q=35.0 size=       1kB time=00:00:04.16 bitrate=   1.4kbits/s speed=0.00694x    frame=  299 fps=0.5 q=35.0 size=       1kB time=00:00:04.18 bitrate=   1.4kbits/s speed=0.00696x    frame=  302 fps=0.5 q=35.0 size=       1kB time=00:00:04.24 bitrate=   1.4kbits/s speed=0.00705x    frame=  303 fps=0.5 q=35.0 size=       1kB time=00:00:04.26 bitrate=   1.4kbits/s speed=0.00694x    frame=  304 fps=0.5 q=35.0 size=       1kB time=00:00:04.28 bitrate=   1.4kbits/s speed=0.00696x    frame=  305 fps=0.5 q=35.0 size=       1kB time=00:00:04.30 bitrate=   1.4kbits/s speed=0.00698x    frame=  307 fps=0.5 q=35.0 size=       1kB time=00:00:04.34 bitrate=   1.4kbits/s speed=0.0069x    frame=  308 fps=0.5 q=35.0 size=       1kB time=00:00:04.36 bitrate=   1.4kbits/s speed=0.00691x    frame=  309 fps=0.5 q=35.0 size=       1kB time=00:00:04.38 bitrate=   1.3kbits/s speed=0.00692x    frame=  310 fps=0.5 q=35.0 size=       1kB time=00:00:04.40 bitrate=   1.3kbits/s speed=0.00694x    frame=  313 fps=0.5 q=35.0 size=       1kB time=00:00:04.46 bitrate=   1.3kbits/s speed=0.00689x    frame=  316 fps=0.5 q=35.0 size=       1kB time=00:00:04.52 bitrate=   1.3kbits/s speed=0.00695x    frame=  318 fps=0.5 q=35.0 size=       1kB time=00:00:04.56 bitrate=   1.3kbits/s speed=0.007x    frame=  319 fps=0.5 q=35.0 size=       1kB time=00:00:04.58 bitrate=   1.3kbits/s speed=0.00682x    frame=  320 fps=0.5 q=35.0 size=       1kB time=00:00:04.60 bitrate=   1.3kbits/s speed=0.00683x    frame=  321 fps=0.5 q=35.0 size=       1kB time=00:00:04.62 bitrate=   1.3kbits/s speed=0.00685x    frame=  325 fps=0.5 q=35.0 size=       1kB time=00:00:04.70 bitrate=   1.3kbits/s speed=0.00684x    frame=  326 fps=0.5 q=35.0 size=       1kB time=00:00:04.72 bitrate=   1.2kbits/s speed=0.00685x    frame=  327 fps=0.5 q=35.0 size=       1kB time=00:00:04.74 bitrate=   1.2kbits/s speed=0.00685x    frame=  329 fps=0.5 q=35.0 size=       1kB time=00:00:04.78 bitrate=   1.2kbits/s speed=0.00681x    frame=  330 fps=0.5 q=35.0 size=       1kB time=00:00:04.80 bitrate=   1.2kbits/s speed=0.00683x    frame=  331 fps=0.5 q=35.0 size=       1kB time=00:00:04.82 bitrate=   1.2kbits/s speed=0.00682x    frame=  332 fps=0.5 q=32.0 size=       1kB time=00:00:04.84 bitrate=   1.2kbits/s speed=0.00684x    frame=  333 fps=0.5 q=36.0 size=       1kB time=00:00:04.86 bitrate=   1.2kbits/s speed=0.00685x    frame=  335 fps=0.5 q=36.0 size=       1kB time=00:00:04.90 bitrate=   1.2kbits/s speed=0.00684x    frame=  336 fps=0.5 q=36.0 size=       1kB time=00:00:04.92 bitrate=   1.2kbits/s speed=0.00685x    frame=  337 fps=0.5 q=36.0 size=    3268kB time=00:00:04.94 bitrate=5417.5kbits/s speed=0.00687x    frame=  341 fps=0.5 q=36.0 size=    3268kB time=00:00:05.02 bitrate=5331.1kbits/s speed=0.00694x    frame=  342 fps=0.5 q=36.0 size=    3268kB time=00:00:05.04 bitrate=5310.0kbits/s speed=0.00694x    frame=  343 fps=0.5 q=37.0 size=    3268kB time=00:00:05.06 bitrate=5289.0kbits/s speed=0.00695x    frame=  347 fps=0.5 q=36.0 size=    3268kB time=00:00:05.14 bitrate=5206.7kbits/s speed=0.00704x    frame=  348 fps=0.5 q=37.0 size=    3268kB time=00:00:05.16 bitrate=5186.5kbits/s speed=0.00705x    frame=  349 fps=0.5 q=37.0 size=    3268kB time=00:00:05.18 bitrate=5166.5kbits/s speed=0.00704x    frame=  350 fps=0.5 q=37.0 size=    3268kB time=00:00:05.20 bitrate=5146.6kbits/s speed=0.00706x    frame=  351 fps=0.5 q=37.0 size=    3268kB time=00:00:05.22 bitrate=5126.9kbits/s speed=0.00706x    frame=  353 fps=0.5 q=37.0 size=    3268kB time=00:00:05.26 bitrate=5087.9kbits/s speed=0.0071x    frame=  354 fps=0.5 q=37.0 size=    3268kB time=00:00:05.28 bitrate=5068.7kbits/s speed=0.00712x    frame=  355 fps=0.5 q=37.0 size=    3268kB time=00:00:05.30 bitrate=5049.6kbits/s speed=0.00711x    frame=  356 fps=0.5 q=37.0 size=    3268kB time=00:00:05.32 bitrate=5030.6kbits/s speed=0.00712x    frame=  357 fps=0.5 q=37.0 size=    3268kB time=00:00:05.34 bitrate=5011.7kbits/s speed=0.00712x    frame=  359 fps=0.5 q=37.0 size=    3268kB time=00:00:05.38 bitrate=4974.5kbits/s speed=0.00713x    frame=  360 fps=0.5 q=37.0 size=    3268kB time=00:00:05.40 bitrate=4956.1kbits/s speed=0.00714x    frame=  361 fps=0.5 q=37.0 size=    3268kB time=00:00:05.42 bitrate=4937.8kbits/s speed=0.00716x    frame=  362 fps=0.5 q=37.0 size=    3268kB time=00:00:05.44 bitrate=4919.6kbits/s speed=0.00716x    frame=  363 fps=0.5 q=37.0 size=    3268kB time=00:00:05.46 bitrate=4901.6kbits/s speed=0.00718x    frame=  365 fps=0.5 q=37.0 size=    3268kB time=00:00:05.50 bitrate=4866.0kbits/s speed=0.00718x    frame=  366 fps=0.5 q=37.0 size=    3268kB time=00:00:05.52 bitrate=4848.3kbits/s speed=0.0072x    frame=  367 fps=0.5 q=37.0 size=    3268kB time=00:00:05.54 bitrate=4830.8kbits/s speed=0.00722x    frame=  368 fps=0.5 q=37.0 size=    3268kB time=00:00:05.56 bitrate=4813.5kbits/s speed=0.00723x    frame=  369 fps=0.5 q=37.0 size=    3268kB time=00:00:05.58 bitrate=4796.2kbits/s speed=0.00723x    frame=  370 fps=0.5 q=37.0 size=    3268kB time=00:00:05.60 bitrate=4779.1kbits/s speed=0.00724x    frame=  371 fps=0.5 q=37.0 size=    3268kB time=00:00:05.62 bitrate=4762.1kbits/s speed=0.00721x    frame=  372 fps=0.5 q=37.0 size=    3268kB time=00:00:05.64 bitrate=4745.2kbits/s speed=0.00723x    frame=  373 fps=0.5 q=37.0 size=    3268kB time=00:00:05.66 bitrate=4728.4kbits/s speed=0.00725x    frame=  374 fps=0.5 q=37.0 size=    3268kB time=00:00:05.68 bitrate=4711.8kbits/s speed=0.0072x    frame=  375 fps=0.5 q=37.0 size=    3268kB time=00:00:05.70 bitrate=4695.3kbits/s speed=0.00722x    frame=  376 fps=0.5 q=37.0 size=    3268kB time=00:00:05.72 bitrate=4678.8kbits/s speed=0.00724x    frame=  380 fps=0.5 q=37.0 size=    3268kB time=00:00:05.80 bitrate=4614.3kbits/s speed=0.00725x    frame=  381 fps=0.5 q=37.0 size=    3268kB time=00:00:05.82 bitrate=4598.5kbits/s speed=0.00727x    frame=  382 fps=0.5 q=37.0 size=    3268kB time=00:00:05.84 bitrate=4582.7kbits/s speed=0.00728x    frame=  384 fps=0.5 q=37.0 size=    3268kB time=00:00:05.88 bitrate=4551.6kbits/s speed=0.00731x    frame=  386 fps=0.5 q=37.0 size=    3268kB time=00:00:05.92 bitrate=4520.8kbits/s speed=0.00727x    frame=  387 fps=0.5 q=37.0 size=    3268kB time=00:00:05.94 bitrate=4505.6kbits/s speed=0.00729x    frame=  389 fps=0.5 q=37.0 size=    3268kB time=00:00:05.98 bitrate=4475.5kbits/s speed=0.00726x    frame=  390 fps=0.5 q=37.0 size=    3268kB time=00:00:06.00 bitrate=4460.5kbits/s speed=0.00727x    frame=  391 fps=0.5 q=37.0 size=    3268kB time=00:00:06.02 bitrate=4445.7kbits/s speed=0.00729x    frame=  393 fps=0.5 q=37.0 size=    3268kB time=00:00:06.06 bitrate=4416.4kbits/s speed=0.00733x    frame=  395 fps=0.5 q=37.0 size=    3268kB time=00:00:06.10 bitrate=4387.4kbits/s speed=0.00724x    frame=  396 fps=0.5 q=37.0 size=    3268kB time=00:00:06.12 bitrate=4373.1kbits/s speed=0.00726x    frame=  398 fps=0.5 q=37.0 size=    3268kB time=00:00:06.16 bitrate=4344.7kbits/s speed=0.0073x    frame=  401 fps=0.5 q=37.0 size=    3268kB time=00:00:06.22 bitrate=4302.8kbits/s speed=0.00728x    frame=  403 fps=0.5 q=37.0 size=    3268kB time=00:00:06.26 bitrate=4275.3kbits/s speed=0.00726x    frame=  404 fps=0.5 q=37.0 size=    3268kB time=00:00:06.28 bitrate=4261.7kbits/s speed=0.00727x    frame=  405 fps=0.5 q=37.0 size=    3268kB time=00:00:06.30 bitrate=4248.2kbits/s speed=0.00728x    frame=  407 fps=0.5 q=37.0 size=    3268kB time=00:00:06.34 bitrate=4221.4kbits/s speed=0.00729x    frame=  409 fps=0.5 q=37.0 size=    3268kB time=00:00:06.38 bitrate=4194.9kbits/s speed=0.00725x    frame=  410 fps=0.5 q=37.0 size=    3268kB time=00:00:06.40 bitrate=4181.8kbits/s speed=0.00726x    frame=  411 fps=0.5 q=37.0 size=    3268kB time=00:00:06.42 bitrate=4168.8kbits/s speed=0.00728x    frame=  413 fps=0.5 q=37.0 size=    3268kB time=00:00:06.46 bitrate=4143.0kbits/s speed=0.00729x    frame=  414 fps=0.5 q=37.0 size=    3268kB time=00:00:06.48 bitrate=4130.2kbits/s speed=0.00731x    frame=  415 fps=0.5 q=37.0 size=    3268kB time=00:00:06.50 bitrate=4117.5kbits/s speed=0.00726x    frame=  416 fps=0.5 q=37.0 size=    3268kB time=00:00:06.52 bitrate=4104.8kbits/s speed=0.0072x    frame=  417 fps=0.5 q=37.0 size=    3268kB time=00:00:06.54 bitrate=4092.3kbits/s speed=0.00721x    frame=  418 fps=0.5 q=37.0 size=    3268kB time=00:00:06.56 bitrate=4079.8kbits/s speed=0.00723x    frame=  421 fps=0.5 q=37.0 size=    3268kB time=00:00:06.62 bitrate=4042.8kbits/s speed=0.00727x    frame=  422 fps=0.5 q=37.0 size=    3268kB time=00:00:06.64 bitrate=4030.7kbits/s speed=0.0072x    frame=  423 fps=0.5 q=37.0 size=    3268kB time=00:00:06.66 bitrate=4018.6kbits/s speed=0.00721x    frame=  424 fps=0.5 q=37.0 size=    3268kB time=00:00:06.68 bitrate=4006.5kbits/s speed=0.00722x    frame=  425 fps=0.5 q=37.0 size=    3268kB time=00:00:06.70 bitrate=3994.6kbits/s speed=0.00722x    frame=  427 fps=0.5 q=37.0 size=    3268kB time=00:00:06.74 bitrate=3970.9kbits/s speed=0.00715x    frame=  428 fps=0.5 q=37.0 size=    3268kB time=00:00:06.76 bitrate=3959.1kbits/s speed=0.00716x    frame=  429 fps=0.5 q=37.0 size=    3268kB time=00:00:06.78 bitrate=3947.5kbits/s speed=0.00717x    frame=  432 fps=0.5 q=37.0 size=    3268kB time=00:00:06.84 bitrate=3912.8kbits/s speed=0.00723x    frame=  433 fps=0.5 q=37.0 size=    3268kB time=00:00:06.86 bitrate=3901.4kbits/s speed=0.00715x    frame=  434 fps=0.5 q=37.0 size=    3268kB time=00:00:06.88 bitrate=3890.1kbits/s speed=0.00716x    frame=  435 fps=0.5 q=37.0 size=    3268kB time=00:00:06.90 bitrate=3878.8kbits/s speed=0.00717x    frame=  437 fps=0.5 q=37.0 size=    3268kB time=00:00:06.94 bitrate=3856.5kbits/s speed=0.00718x    frame=  438 fps=0.4 q=37.0 size=    3268kB time=00:00:06.96 bitrate=3845.4kbits/s speed=0.00711x    frame=  439 fps=0.4 q=37.0 size=    3268kB time=00:00:06.98 bitrate=3834.4kbits/s speed=0.00712x    frame=  440 fps=0.4 q=37.0 size=    3268kB time=00:00:07.00 bitrate=3823.4kbits/s speed=0.00713x    frame=  444 fps=0.4 q=37.0 size=    3268kB time=00:00:07.08 bitrate=3780.2kbits/s speed=0.00711x    frame=  446 fps=0.4 q=37.0 size=    3268kB time=00:00:07.12 bitrate=3759.0kbits/s speed=0.00712x    frame=  448 fps=0.4 q=37.0 size=    3268kB time=00:00:07.16 bitrate=3738.0kbits/s speed=0.00707x    frame=  449 fps=0.4 q=37.0 size=    3268kB time=00:00:07.18 bitrate=3727.6kbits/s speed=0.00708x    frame=  450 fps=0.4 q=37.0 size=    3268kB time=00:00:07.20 bitrate=3717.2kbits/s speed=0.00709x    frame=  452 fps=0.4 q=37.0 size=    3268kB time=00:00:07.24 bitrate=3696.7kbits/s speed=0.00712x    frame=  454 fps=0.4 q=37.0 size=    3268kB time=00:00:07.28 bitrate=3676.4kbits/s speed=0.00708x    frame=  455 fps=0.4 q=37.0 size=    3268kB time=00:00:07.30 bitrate=3666.3kbits/s speed=0.0071x    frame=  456 fps=0.4 q=37.0 size=    3268kB time=00:00:07.32 bitrate=3656.3kbits/s speed=0.0071x    frame=  458 fps=0.4 q=37.0 size=    3268kB time=00:00:07.36 bitrate=3636.4kbits/s speed=0.00704x    frame=  459 fps=0.4 q=37.0 size=    3268kB time=00:00:07.38 bitrate=3626.6kbits/s speed=0.00705x    frame=  460 fps=0.4 q=37.0 size=    3268kB time=00:00:07.40 bitrate=3616.8kbits/s speed=0.00706x    frame=  462 fps=0.4 q=37.0 size=    3268kB time=00:00:07.44 bitrate=3597.3kbits/s speed=0.00709x    frame=  464 fps=0.4 q=37.0 size=    3268kB time=00:00:07.48 bitrate=3578.1kbits/s speed=0.00705x    frame=  465 fps=0.4 q=37.0 size=    3268kB time=00:00:07.50 bitrate=3568.5kbits/s speed=0.00706x    frame=  466 fps=0.4 q=37.0 size=    3268kB time=00:00:07.52 bitrate=3559.1kbits/s speed=0.00706x    frame=  467 fps=0.4 q=37.0 size=    3268kB time=00:00:07.54 bitrate=3549.6kbits/s speed=0.00706x    frame=  468 fps=0.4 q=37.0 size=    3268kB time=00:00:07.56 bitrate=3540.2kbits/s speed=0.00702x    frame=  469 fps=0.4 q=37.0 size=    3268kB time=00:00:07.58 bitrate=3530.9kbits/s speed=0.00703x    frame=  470 fps=0.4 q=37.0 size=    3268kB time=00:00:07.60 bitrate=3521.6kbits/s speed=0.00704x    frame=  472 fps=0.4 q=37.0 size=    3268kB time=00:00:07.64 bitrate=3503.2kbits/s speed=0.00707x    frame=  473 fps=0.4 q=37.0 size=    3268kB time=00:00:07.66 bitrate=3494.0kbits/s speed=0.00708x    frame=  474 fps=0.4 q=37.0 size=    3268kB time=00:00:07.68 bitrate=3484.9kbits/s speed=0.007x    frame=  475 fps=0.4 q=37.0 size=    3268kB time=00:00:07.70 bitrate=3475.9kbits/s speed=0.00701x    frame=  476 fps=0.4 q=37.0 size=    3268kB time=00:00:07.72 bitrate=3466.9kbits/s speed=0.00702x    frame=  478 fps=0.4 q=37.0 size=    3268kB time=00:00:07.76 bitrate=3449.0kbits/s speed=0.00705x    frame=  479 fps=0.4 q=37.0 size=    3268kB time=00:00:07.78 bitrate=3440.1kbits/s speed=0.00706x    frame=  480 fps=0.4 q=37.0 size=    3268kB time=00:00:07.80 bitrate=3431.3kbits/s speed=0.00696x    frame=  481 fps=0.4 q=37.0 size=    3268kB time=00:00:07.82 bitrate=3422.5kbits/s speed=0.00697x    frame=  482 fps=0.4 q=37.0 size=    3268kB time=00:00:07.84 bitrate=3413.8kbits/s speed=0.00698x    frame=  486 fps=0.4 q=37.0 size=    3268kB time=00:00:07.92 bitrate=3379.3kbits/s speed=0.00695x    frame=  487 fps=0.4 q=37.0 size=    3268kB time=00:00:07.94 bitrate=3370.8kbits/s speed=0.00695x    frame=  492 fps=0.4 q=37.0 size=    3268kB time=00:00:08.04 bitrate=3328.9kbits/s speed=0.00696x    frame=  493 fps=0.4 q=37.0 size=    3268kB time=00:00:08.06 bitrate=3320.6kbits/s speed=0.00697x    frame=  495 fps=0.4 q=37.0 size=    3268kB time=00:00:08.10 bitrate=3304.2kbits/s speed=0.00694x    frame=  496 fps=0.4 q=37.0 size=    3268kB time=00:00:08.12 bitrate=3296.1kbits/s speed=0.00695x    frame=  497 fps=0.4 q=37.0 size=    3268kB time=00:00:08.14 bitrate=3288.0kbits/s speed=0.00696x    frame=  500 fps=0.4 q=37.0 size=    3268kB time=00:00:08.20 bitrate=3264.0kbits/s speed=0.0069x    frame=  500 fps=0.3 q=-1.0 Lsize=    7370kB time=00:00:09.94 bitrate=6073.7kbits/s speed=0.00685x    
video:7366kB audio:0kB subtitle:0kB other streams:0kB global headers:0kB muxing overhead: 0.058584%
bench: utime=5647.400s
bench: maxrss=6492212kB
[libx264 @ 0x42d8120] frame I:3     Avg QP:33.22  size:306244
[libx264 @ 0x42d8120] frame P:45    Avg QP:35.56  size: 49226
[libx264 @ 0x42d8120] frame B:452   Avg QP:38.70  size:  9753
[libx264 @ 0x42d8120] consecutive B-frames:  0.6%  0.0%  0.0%  0.0%  0.0%  0.0%  1.4%  3.2%  7.2% 30.0% 19.8%  9.6%  5.2% 14.0%  9.0%  0.0%  0.0%
[libx264 @ 0x42d8120] mb I  I16..4: 34.6% 58.3%  7.1%
[libx264 @ 0x42d8120] mb P  I16..4:  0.1%  0.3%  0.0%  P16..4: 38.5% 19.9%  3.5%  0.3%  0.0%    skip:37.5%
[libx264 @ 0x42d8120] mb B  I16..4:  0.0%  0.0%  0.0%  B16..8: 32.3%  1.8%  0.0%  direct: 0.0%  skip:65.9%  L0:50.0% L1:50.0% BI: 0.1%
[libx264 @ 0x42d8120] final ratefactor: 28.66
[libx264 @ 0x42d8120] 8x8 transform intra:59.6% inter:72.3%
[libx264 @ 0x42d8120] direct mvs  spatial:98.7% temporal:1.3%
[libx264 @ 0x42d8120] coded y,uvDC,uvAC intra: 65.4% 44.2% 23.7% inter: 0.7% 0.6% 0.0%
[libx264 @ 0x42d8120] i16 v,h,dc,p:  7% 26%  3% 63%
[libx264 @ 0x42d8120] i8 v,h,dc,ddl,ddr,vr,hd,vl,hu:  2%  3%  7% 15% 21% 14% 19%  8% 11%
[libx264 @ 0x42d8120] i4 v,h,dc,ddl,ddr,vr,hd,vl,hu:  2%  3%  4% 16% 19% 13% 19%  9% 15%
[libx264 @ 0x42d8120] i8c dc,h,v,p: 18% 58% 14% 10%
[libx264 @ 0x42d8120] Weighted P-Frames: Y:4.4% UV:2.2%
[libx264 @ 0x42d8120] ref P L0: 59.8% 20.6%  8.6%  2.4%  1.7%  2.0%  1.5%  0.4%  0.4%  0.5%  0.4%  0.4%  0.3%  0.4%  0.4%  0.1%
[libx264 @ 0x42d8120] ref B L0: 93.1%  2.8%  2.4%  0.4%  0.4%  0.3%  0.3%  0.1%  0.1%  0.1%  0.1%  0.1%  0.0%  0.0%  0.0%
[libx264 @ 0x42d8120] ref B L1: 95.6%  4.4%
[libx264 @ 0x42d8120] kb/s:6033.82
